<svg width="18" height="23" viewBox="0 0 18 23" fill="none" xmlns="http://www.w3.org/2000/svg">
<path d="M15.75 7.66667H14.625V5.47619C14.625 4.02381 14.0324 2.63092 12.9775 1.60394C11.9226 0.576954 10.4918 0 9 0C7.50816 0 6.07742 0.576954 5.02252 1.60394C3.96763 2.63092 3.375 4.02381 3.375 5.47619V7.66667H2.25C1.65381 7.6684 1.08255 7.89974 0.660977 8.31016C0.239405 8.72058 0.00178057 9.27673 0 9.85714V20.8095C0.00178057 21.3899 0.239405 21.9461 0.660977 22.3565C1.08255 22.7669 1.65381 22.9983 2.25 23H15.75C16.3462 22.9983 16.9175 22.7669 17.339 22.3565C17.7606 21.9461 17.9982 21.3899 18 20.8095V9.85714C17.9982 9.27673 17.7606 8.72058 17.339 8.31016C16.9175 7.89974 16.3462 7.6684 15.75 7.66667ZM9 17.5238C8.55499 17.5238 8.11998 17.3953 7.74997 17.1546C7.37996 16.914 7.09157 16.5718 6.92127 16.1716C6.75097 15.7713 6.70642 15.3309 6.79323 14.906C6.88005 14.4811 7.09434 14.0908 7.40901 13.7844C7.72368 13.4781 8.12459 13.2695 8.56105 13.1849C8.9975 13.1004 9.4499 13.1438 9.86104 13.3096C10.2722 13.4754 10.6236 13.7561 10.8708 14.1164C11.118 14.4766 11.25 14.9001 11.25 15.3333C11.2482 15.9138 11.0106 16.4699 10.589 16.8803C10.1675 17.2907 9.59619 17.5221 9 17.5238ZM12.4875 7.66667H5.5125V5.47619C5.5125 4.57572 5.87993 3.71213 6.53397 3.07539C7.188 2.43866 8.07506 2.08095 9 2.08095C9.92494 2.08095 10.812 2.43866 11.466 3.07539C12.1201 3.71213 12.4875 4.57572 12.4875 5.47619V7.66667Z" fill="#4B00AA"/>
</svg>
