<svg width="28" height="28" viewBox="0 0 28 28" fill="none" xmlns="http://www.w3.org/2000/svg">
<path d="M22.1667 5.83333H15.1667C14.525 5.83333 14 5.30833 14 4.66667C14 4.025 14.525 3.5 15.1667 3.5H22.1667C23.45 3.5 24.5 4.55 24.5 5.83333V22.1667C24.5 23.45 23.45 24.5 22.1667 24.5H15.1667C14.525 24.5 14 23.975 14 23.3333C14 22.6917 14.525 22.1667 15.1667 22.1667H22.1667V5.83333Z" fill="white"/>
<path d="M3.90833 13.5915L7.16333 10.3365C7.24447 10.2531 7.34864 10.1959 7.46251 10.172C7.57637 10.1482 7.69475 10.1589 7.8025 10.2028C7.91024 10.2466 8.00245 10.3216 8.06733 10.4182C8.13221 10.5148 8.16679 10.6285 8.16667 10.7448V12.8331H16.3333C16.975 12.8331 17.5 13.3581 17.5 13.9998C17.5 14.6415 16.975 15.1665 16.3333 15.1665H8.16667V17.2548C8.16667 17.7798 7.53667 18.0365 7.175 17.6631L3.92 14.4081C3.68667 14.1865 3.68667 13.8131 3.90833 13.5915Z" fill="white"/>
</svg>
