<svg width="23" height="23" viewBox="0 0 23 23" fill="none" xmlns="http://www.w3.org/2000/svg">
<path d="M11.5 2.73125C12.0971 2.73125 12.6807 2.9083 13.1771 3.24C13.6736 3.57171 14.0605 4.04317 14.289 4.59477C14.5174 5.14638 14.5772 5.75335 14.4607 6.33893C14.3443 6.92451 14.0568 7.4624 13.6346 7.88458C13.2124 8.30676 12.6745 8.59427 12.0889 8.71075C11.5033 8.82723 10.8964 8.76744 10.3448 8.53896C9.79317 8.31048 9.32171 7.92356 8.99 7.42713C8.6583 6.9307 8.48125 6.34705 8.48125 5.75C8.48125 4.94938 8.7993 4.18155 9.36542 3.61542C9.93155 3.0493 10.6994 2.73125 11.5 2.73125ZM11.5 15.6687C15.7694 15.6687 20.2688 17.7675 20.2688 18.6875V20.2688H2.73125V18.6875C2.73125 17.7675 7.23063 15.6687 11.5 15.6687ZM11.5 0C10.3628 0 9.25105 0.337231 8.30547 0.969049C7.35989 1.60087 6.6229 2.4989 6.18769 3.54957C5.75249 4.60025 5.63862 5.75638 5.86048 6.87177C6.08235 7.98716 6.62998 9.01171 7.43414 9.81586C8.23829 10.62 9.26284 11.1677 10.3782 11.3895C11.4936 11.6114 12.6498 11.4975 13.7004 11.0623C14.7511 10.6271 15.6491 9.89011 16.281 8.94453C16.9128 7.99895 17.25 6.88724 17.25 5.75C17.25 4.22501 16.6442 2.76247 15.5659 1.68414C14.4875 0.605802 13.025 0 11.5 0ZM11.5 12.9375C7.66187 12.9375 0 14.8637 0 18.6875V23H23V18.6875C23 14.8637 15.3381 12.9375 11.5 12.9375Z" fill="#4B00AA"/>
</svg>
