<svg width="32" height="33" viewBox="0 0 32 33" fill="none" xmlns="http://www.w3.org/2000/svg">
<path fill-rule="evenodd" clip-rule="evenodd" d="M31.75 6.09375V3.78125H18.625V6.09375H31.75ZM18.625 20.2V12.8L20.0688 11.875H22.6938L23.875 12.8V20.2L22.5625 21.125H19.9375L18.625 20.2V20.2ZM10.75 8.6375V1.2375L12.0625 0.3125L14.6875 0.3125L16 1.2375V8.6375L14.6875 9.5625H12.0625L10.75 8.6375ZM31.75 17.6562V15.3438H26.5V17.6562H31.75ZM16 15.3438V17.6562H0.25V15.3438H16ZM8.125 6.09375V3.78125H0.25V6.09375H8.125ZM8.125 24.3625V31.7394L9.4375 32.6644H11.9312L13.2437 31.7394V24.3625L11.9312 23.4375H9.4375L8.125 24.3625ZM31.75 29.2188V26.9062H16V29.2188H31.75ZM5.5 26.9062V29.2188H0.25V26.9062H5.5Z" fill="#4B00AA"/>
</svg>
